<svg xmlns="http://www.w3.org/2000/svg" viewBox="0 0 24 24" fill="none" stroke="currentColor" stroke-width="2" stroke-linecap="round" stroke-linejoin="round" class="feather feather-users">
  <path d="M17.924 13.366a5.98 5.98 0 0 0 1.144-3.366c0-3.308-2.692-6-6-6s-6 2.692-6 6a5.98 5.98 0 0 0 1.144 3.366M12 22c-1.433 0-2.906-.403-4.154-1.196-2.414-1.305-3.846-3.869-3.846-6.804 0-2.61 1.59-4.797 3.846-5.715C9.094 6.48 10.567 6 12 6s2.906.48 4.154 1.285C18.41 7.203 20 9.39 20 12c0 2.935-1.432 5.5-3.846 6.804C14.906 21.597 13.433 22 12 22z"></path>
</svg>